Coordinates
version=1
nRows=16
nColumns=18
inDegrees=yes

Units are S.I. units (second, meters, Newtons, ...)
Angles are in degrees.

endheader
time	pelvis_tilt	pelvis_list	pelvis_rotation	pelvis_tx	pelvis_ty	pelvis_tz	hip_flexion_r	hip_adduction_r	hip_rotation_r	knee_angle_r	ankle_angle_r	hip_flexion_l	hip_adduction_l	hip_rotation_l	knee_angle_l	ankle_angle_l	lumbar_extension
      0.00000000	      0.07171481	     12.02660403	    -10.63163089	     -1.87815702	      0.80776666	      0.15907046	     50.15781341	    -18.65320072	      0.00000000	    -68.28525521	     18.20915594	    -12.77129938	     26.39896964	      0.00000000	     11.67385352	     30.55178038	     -5.00000214
      0.01000000	      0.22034116	     10.95781537	    -11.45139342	     -1.86789523	      0.80706880	      0.16562357	     49.14514527	    -15.91234373	      0.00000000	    -65.66747411	     22.06961152	    -15.92115449	     25.24434077	      0.00000000	     15.86315850	     28.58386057	     -5.00000214
      0.02000000	      0.07109056	     10.00359944	    -11.80608604	     -1.85910177	      0.80640470	      0.17121299	     48.43629882	    -13.47746980	      0.00000000	    -62.83460404	     25.06321749	    -17.92795412	     24.08810628	      0.00000000	     18.53091225	     27.40445586	     -5.00000214
      0.03000000	     -0.16109832	      9.04626629	    -12.08074809	     -1.85070456	      0.80575683	      0.17680224	     47.79008896	    -11.10861854	      0.00000000	    -59.87082676	     27.28574881	    -19.57536588	     22.86025015	      0.00000000	     20.71818946	     26.42188423	     -5.00000214
      0.04000000	     -0.44772755	      8.12443217	    -12.26567197	     -1.84251872	      0.80516534	      0.18223389	     47.19073273	     -8.89041753	      0.00000000	    -56.79311393	     29.01575076	    -20.96775361	     21.62672200	      0.00000000	     22.56141727	     25.43303938	     -5.00000214
      0.05000000	     -0.76635606	      7.26946935	    -12.37378261	     -1.83436753	      0.80472752	      0.18733380	     46.60254107	     -6.88495954	      0.00000000	    -53.61461372	     30.51351642	    -22.00362074	     20.42278141	      0.00000000	     23.76191302	     25.22494021	     -5.00000214
      0.06000000	     -1.26098251	      6.69512564	    -12.17703252	     -1.82690554	      0.80455577	      0.19093583	     46.29230301	     -5.44857048	      0.00000000	    -50.39607366	     31.04923788	    -22.19162661	     19.45576625	      0.00000000	     23.80570030	     25.01774661	     -5.00000214
      0.07000000	     -1.41413054	      5.63647189	    -12.59358286	     -1.81782750	      0.80416481	      0.19746658	     45.35136230	     -3.23725938	      0.00000000	    -47.23922393	     32.67706880	    -23.76504376	     18.04935981	      0.00000000	     25.56186008	     24.05121744	     -5.00000214
      0.08000000	     -1.73217513	      4.90883692	    -12.63774788	     -1.80935484	      0.80401737	      0.20214189	     44.70673549	     -1.70863986	      0.00000000	    -44.19749243	     33.29776959	    -24.48699545	     16.94264191	      0.00000000	     26.10179829	     23.81649506	     -5.00000214
      0.09000000	     -2.01353893	      4.22017808	    -12.71253484	     -1.80062273	      0.80395504	      0.20673438	     44.01987935	     -0.30617481	      0.00000000	    -41.34905208	     33.80209289	    -25.21339461	     15.89252265	      0.00000000	     26.54132073	     23.34252137	     -5.00000214
      0.10000000	     -2.24845799	      3.57536693	    -12.81648645	     -1.79156758	      0.80394952	      0.21123232	     43.30391250	      0.97255389	      0.00000000	    -38.78414514	     34.15221581	    -25.97596731	     14.91303503	      0.00000000	     26.92536959	     22.63260081	     -5.00000214
      0.11000000	     -2.42099472	      2.99645310	    -12.95186503	     -1.78210348	      0.80399516	      0.21551913	     42.57654048	      2.11933085	      0.00000000	    -36.60473561	     34.29894831	    -26.69342454	     14.04199256	      0.00000000	     27.02675389	     22.46704691	     -5.00000214
      0.12000000	     -2.50456875	      2.49074291	    -13.14496324	     -1.77206994	      0.80396884	      0.21958441	     41.87942004	      3.14281202	      0.00000000	    -34.99831922	     34.44582244	    -27.57506988	     13.32377294	      0.00000000	     27.20172359	     21.82012566	     -5.00000214
      0.13000000	     -2.50405508	      2.22982060	    -13.24619570	     -1.76152234	      0.80399415	      0.22244090	     41.34930144	      3.74319747	      0.00000000	    -34.16001791	     34.60753136	    -28.22152901	     12.95149634	      0.00000000	     26.74113392	     21.61955204	     -5.00000214
      0.14000000	     -2.33875710	      1.82781655	    -13.59797841	     -1.75010309	      0.80373844	      0.22627270	     40.73196812	      4.60640274	      0.00000000	    -34.01584523	     34.85095557	    -29.46418480	     12.52056563	      0.00000000	     26.92873391	     20.94503655	     -5.00000214
      0.15000000	     -2.09140346	      1.75414175	    -13.85469399	     -1.73814747	      0.80336219	      0.22852614	     40.40375849	      4.93319645	      0.00000000	    -34.84500186	     35.10660553	    -30.46547876	     12.55646541	      0.00000000	     26.53086474	     20.41668037	     -5.00000214
